# xmcd
#
# Track frame offsets: 
#        150
#        34449
#        42830
#        70778
#        83282
#        101639
#        131989
#        145196
#        169626
#
# Disc length: 2386 seconds
#
# Revision: 0
# Processed by: cddbd v1.5.2PL0 Copyright (c) Steve Scherf et al.
# Submitted via: ExactAudioCopy v0.99pb4
#
DISCID=75095009
DTITLE=Egan, Bob - The Glorious Decline
DYEAR=2006
DGENRE=Country
TTITLE0=An Airport Bar on Christmas Day
TTITLE1=Montreal
TTITLE2=Spalding's Lament
TTITLE3=The Forgotten Waltz
TTITLE4=Learn to Love Again
TTITLE5=Pleasantville Bar
TTITLE6=Virginia
TTITLE7=Drinting too Far from the Shore
TTITLE8=Crawling Back to You
EXTD=
EXTT0=
EXTT1=
EXTT2=
EXTT3=
EXTT4=
EXTT5=
EXTT6=
EXTT7=
EXTT8=
PLAYORDER=
